# xmcd
#
# Track frame offsets:
#	150
#	25750
#	48620
#	72385
#	90702
#	112530
#	140145
#	162090
#	179880
#	202705
#
# Disc length: 2972 seconds
#
# Revision: 1
# Processed by: cddbd v1.5.1PL0 Copyright (c) Steve Scherf et al.
# Submitted via: CDex 1.50Beta5
#
DISCID=860b9a0a
DTITLE=ラジオラマ - ノンストップ・ディスコ・ミックス/ユーロビート・ファンタジーVol.11
DYEAR=1990
DGENRE=Rock
TTITLE0=ラジオラマ/ダディ・ダディ
TTITLE1=バネッサ/エターニティ
TTITLE2=DR.マネー/ギブ・アップ
TTITLE3=アトリウム/ジョリー・ジョーカー
TTITLE4=マイク・ハマー/ヘイ・マン
TTITLE5=マックス・コベリ/ワン・ツー・スリー
TTITLE6=マックス・コベリ/プリティ・ウーマン
TTITLE7=チェスター/ライト・タイム
TTITLE8=サマンサ・ジルズ/L.O.V.E.
TTITLE9=マニュエラ/オーバー&オーバー
EXTD=
EXTT0=
EXTT1=
EXTT2=
EXTT3=
EXTT4=
EXTT5=
EXTT6=
EXTT7=
EXTT8=
EXTT9=
PLAYORDER=
